<svg xmlns="http://www.w3.org/2000/svg" xmlns:xlink="http://www.w3.org/1999/xlink" width="500" zoomAndPan="magnify" viewBox="0 0 375.12 383.03998" height="500" preserveAspectRatio="xMidYMid meet" version="1.0"><defs><clipPath id="6c03db1415"><path d="M 63 91 L 304 91 L 304 300.128906 L 63 300.128906 Z M 63 91 " clip-rule="nonzero"/></clipPath></defs><path fill="#eb8d96" d="M 242.265625 294.175781 C 172.808594 288.167969 76.976562 252.4375 69.828125 209.902344 C 63.183594 170.378906 116.15625 125.179688 184.421875 184.511719 C 184.484375 165.25 194.472656 141.8125 203.503906 124.503906 C 229.679688 74.34375 289.910156 103.015625 296.167969 139.546875 C 305.597656 194.59375 259.203125 272.777344 242.265625 294.175781 " fill-opacity="1" fill-rule="nonzero"/><g clip-path="url(#6c03db1415)"><path fill="#bb7953" d="M 242.269531 300.03125 C 242.101562 300.03125 241.933594 300.023438 241.765625 300.011719 C 174.277344 294.171875 72.164062 259.070312 64.0625 210.875 C 61.671875 196.636719 65.953125 181.769531 75.8125 170.09375 C 86.726562 157.164062 102.65625 150.046875 120.667969 150.046875 C 139.507812 150.046875 159.695312 157.949219 179.546875 173.007812 C 181.832031 158.515625 188.117188 141.351562 198.324219 121.792969 C 208.445312 102.398438 224.605469 91.71875 243.835938 91.71875 C 270.976562 91.71875 297.578125 113.167969 301.929688 138.558594 C 312.308594 199.144531 260.28125 280.839844 246.847656 297.816406 C 245.734375 299.222656 244.042969 300.03125 242.269531 300.03125 Z M 120.667969 161.757812 C 106.152344 161.757812 93.394531 167.402344 84.738281 177.65625 C 77.105469 186.695312 73.769531 198.097656 75.589844 208.929688 C 81.738281 245.507812 168.007812 281.046875 239.597656 288.050781 C 257.957031 263.488281 299.054688 191.003906 290.40625 140.539062 C 287.019531 120.769531 265.257812 103.429688 243.835938 103.429688 C 233.460938 103.429688 218.945312 107.554688 208.683594 127.21875 C 196.683594 150.214844 190.3125 170.035156 190.265625 184.527344 C 190.257812 186.820312 188.917969 188.894531 186.835938 189.839844 C 184.753906 190.785156 182.316406 190.433594 180.589844 188.929688 C 160.136719 171.152344 139.414062 161.757812 120.667969 161.757812 Z M 120.667969 161.757812 " fill-opacity="1" fill-rule="nonzero"/></g><path fill="#fffaf2" d="M 272.972656 133.824219 C 259.039062 122.09375 239.9375 125.023438 227.535156 137.195312 C 214.710938 149.746094 212.691406 156.578125 212.8125 173.761719 C 213.011719 181.273438 224.789062 181.28125 225.015625 173.761719 C 226.527344 161.277344 226.566406 156.875 237.875 147.867188 C 243.453125 144.394531 241.933594 145.179688 246.242188 143.8125 C 246.625 143.714844 247.011719 143.632812 247.398438 143.558594 C 248.582031 143.476562 249.773438 143.445312 250.957031 143.519531 C 251.140625 143.527344 251.320312 143.550781 251.5 143.5625 C 252.386719 143.714844 253.269531 143.890625 254.132812 144.148438 C 254.144531 144.152344 254.148438 144.15625 254.160156 144.160156 C 255.265625 144.734375 256.339844 145.355469 257.382812 146.027344 C 258.46875 146.941406 259.464844 147.957031 260.511719 148.917969 C 264.863281 154.25 273.691406 153.851562 277.351562 148.035156 C 280.667969 142.710938 277.523438 137.40625 272.972656 133.824219 M 147.769531 187.714844 C 144.695312 184.835938 139.980469 184.953125 135.972656 184.148438 C 125.589844 182.597656 114.15625 183.425781 105.226562 189.007812 C 99.144531 192.808594 94.289062 199.550781 95.429688 206.589844 C 95.433594 206.636719 95.433594 206.675781 95.4375 206.765625 C 95.738281 208.796875 95.429688 211.035156 96.3125 212.933594 C 98.660156 218.65625 108.066406 216.824219 107.992188 210.734375 C 107.945312 209.902344 108.058594 207.648438 108.046875 206.933594 C 108.121094 206.636719 108.214844 206.351562 108.3125 206.0625 C 108.613281 205.566406 108.941406 205.085938 109.285156 204.613281 C 109.671875 204.226562 110.289062 203.617188 110.84375 203.160156 C 110.890625 203.125 110.9375 203.09375 110.988281 203.054688 C 115.230469 200.324219 114.6875 201.0625 117.03125 200.277344 C 117.78125 200.089844 118.539062 199.953125 119.300781 199.824219 C 119.3125 199.824219 119.320312 199.824219 119.328125 199.820312 C 127.601562 199.195312 128.988281 199.652344 131.316406 199.945312 C 133.292969 200.28125 135.246094 200.71875 137.128906 201.386719 C 138.839844 202.046875 140.683594 202.613281 142.523438 202.15625 C 149.898438 201.644531 153.023438 192.421875 147.769531 187.714844 " fill-opacity="1" fill-rule="nonzero"/></svg>