<svg xmlns="http://www.w3.org/2000/svg" xmlns:xlink="http://www.w3.org/1999/xlink" width="500" zoomAndPan="magnify" viewBox="0 0 375.12 383.03998" height="500" preserveAspectRatio="xMidYMid meet" version="1.0"><defs><clipPath id="aacfcd24d9"><path d="M 102 78.617188 L 273.34375 78.617188 L 273.34375 295.574219 L 102 295.574219 Z M 102 78.617188 " clip-rule="nonzero"/></clipPath></defs><path fill="#a7d9ba" d="M 187.578125 83.761719 C 160.785156 83.761719 174.097656 134.152344 161.707031 151.09375 C 149.527344 167.75 100.625 162.226562 108.917969 185.515625 C 116.742188 207.484375 157.484375 178.238281 170.332031 233.019531 C 175.105469 253.375 175.46875 291.234375 191.09375 290.414062 C 205.300781 289.667969 203.480469 251.125 205.875 238.09375 C 214.421875 191.613281 266.261719 201.816406 267.910156 178.554688 C 269.078125 162.027344 219.242188 183.726562 205.152344 138.027344 C 200.675781 123.503906 200.347656 83.761719 187.578125 83.761719 " fill-opacity="1" fill-rule="nonzero"/><g clip-path="url(#aacfcd24d9)"><path fill="#bb7953" d="M 190.601562 295.574219 C 190.597656 295.574219 190.597656 295.574219 190.597656 295.574219 C 174.863281 295.566406 171.535156 273.148438 168.316406 251.464844 C 167.371094 245.097656 166.476562 239.082031 165.332031 234.195312 C 158.277344 204.121094 143.222656 202.515625 128.660156 200.960938 C 119.0625 199.933594 108.1875 198.773438 104.082031 187.242188 C 102.292969 182.222656 102.4375 177.675781 104.503906 173.738281 C 108.867188 165.433594 120.359375 162.386719 132.53125 159.15625 C 142.367188 156.546875 153.515625 153.589844 157.566406 148.054688 C 161.550781 142.605469 162.425781 131.347656 163.269531 120.464844 C 164.71875 101.820312 166.519531 78.617188 187.578125 78.617188 C 200.953125 78.617188 203.960938 99.210938 206.875 119.128906 C 207.882812 126.019531 208.832031 132.527344 210.058594 136.507812 C 217.792969 161.585938 236.996094 163.679688 252.425781 165.359375 C 257.550781 165.914062 261.980469 166.398438 265.476562 167.742188 C 272.542969 170.460938 273.242188 175.914062 273.03125 178.921875 C 272.113281 191.898438 260.453125 196.617188 248.105469 201.609375 C 232.761719 207.820312 215.367188 214.855469 210.925781 239.027344 C 210.394531 241.917969 210.058594 246.625 209.707031 251.609375 C 208.339844 270.828125 206.640625 294.75 191.363281 295.550781 C 191.105469 295.566406 190.855469 295.574219 190.601562 295.574219 Z M 187.578125 88.90625 C 176.800781 88.90625 175.070312 101.132812 173.507812 121.261719 C 172.507812 134.152344 171.5625 146.324219 165.847656 154.136719 C 159.65625 162.609375 147.199219 165.910156 135.160156 169.105469 C 126.109375 171.507812 115.855469 174.226562 113.59375 178.53125 C 113.339844 179.011719 112.574219 180.472656 113.753906 183.785156 C 115.523438 188.757812 119.546875 189.636719 129.75 190.726562 C 145.304688 192.386719 166.609375 194.664062 175.332031 231.84375 C 176.574219 237.144531 177.496094 243.363281 178.476562 249.949219 C 180.5625 264.019531 183.71875 285.28125 190.597656 285.28125 C 190.601562 285.28125 190.601562 285.28125 190.601562 285.28125 C 190.675781 285.28125 190.75 285.28125 190.824219 285.277344 C 192.90625 285.167969 194.953125 281.621094 196.445312 275.542969 C 198.222656 268.300781 198.882812 259.042969 199.460938 250.878906 C 199.855469 245.375 200.191406 240.621094 200.828125 237.164062 C 206.292969 207.433594 228.238281 198.550781 244.261719 192.070312 C 255.796875 187.402344 262.34375 184.457031 262.785156 178.191406 C 262.796875 178.023438 262.792969 177.914062 262.785156 177.847656 C 261.53125 176.699219 255.398438 176.035156 251.316406 175.589844 C 235.851562 173.90625 209.972656 171.085938 200.246094 139.542969 C 198.785156 134.804688 197.78125 127.914062 196.714844 120.621094 C 195.550781 112.667969 194.234375 103.652344 192.214844 97.085938 C 190.15625 90.378906 188.171875 88.90625 187.578125 88.90625 Z M 187.578125 88.90625 " fill-opacity="1" fill-rule="nonzero"/></g><path fill="#fff4ed" d="M 224.738281 177.402344 C 222.347656 175.3125 218.867188 175.207031 215.914062 174.347656 C 215.292969 174.164062 214.679688 173.941406 214.074219 173.714844 C 213.949219 173.667969 213.851562 173.628906 213.78125 173.597656 C 213.53125 173.488281 213.285156 173.375 213.039062 173.253906 C 211.695312 172.617188 210.417969 171.847656 209.179688 171.027344 C 207.1875 169.710938 205.304688 167.988281 203.253906 165.78125 C 201.136719 163.507812 199.972656 161.910156 198.207031 159.179688 C 194.851562 153.992188 192.789062 149.070312 191.304688 143.109375 C 190.019531 137.941406 189.914062 132.761719 189.257812 127.398438 C 188.929688 124.710938 185.445312 123.222656 183.867188 125.9375 C 180.488281 131.746094 181.105469 138.683594 182.324219 145.050781 C 183.636719 151.929688 186.375 158.640625 189.957031 164.640625 C 193.539062 170.636719 198.335938 175.8125 204.082031 179.769531 C 209.203125 183.300781 219.136719 187.929688 224.738281 183.277344 C 226.398438 181.902344 226.332031 178.792969 224.738281 177.402344 Z M 201.023438 199.785156 C 199.488281 199.992188 198.386719 199.933594 196.96875 200.753906 C 195.371094 201.675781 194.253906 203.003906 193.292969 204.550781 C 191.554688 207.363281 190.054688 212.214844 191.230469 215.4375 C 192.535156 219.023438 197.542969 219.285156 198.746094 215.4375 C 199.429688 213.242188 199.128906 210.871094 199.832031 208.617188 C 200.136719 207.621094 200.746094 206.707031 201.210938 205.777344 C 201.625 204.945312 202.210938 203.566406 202.847656 202.929688 C 204.3125 201.46875 202.757812 199.546875 201.023438 199.785156 Z M 201.023438 199.785156 " fill-opacity="1" fill-rule="nonzero"/></svg>