<svg xmlns="http://www.w3.org/2000/svg" xmlns:xlink="http://www.w3.org/1999/xlink" width="500" zoomAndPan="magnify" viewBox="0 0 375.12 383.03998" height="500" preserveAspectRatio="xMidYMid meet" version="1.0"><defs><clipPath id="1c8606b83b"><path d="M 85 86.617188 L 291 86.617188 L 291 287 L 85 287 Z M 85 86.617188 " clip-rule="nonzero"/></clipPath></defs><path fill="#fcd997" d="M 118.410156 190.972656 C 118.410156 190.972656 86.308594 237.574219 97.726562 250.890625 C 108.488281 263.4375 164.394531 244.96875 164.394531 244.96875 C 164.394531 244.96875 204.375 287.121094 220.914062 280.386719 C 237.660156 273.570312 234.285156 217.589844 234.285156 217.589844 C 234.285156 217.589844 286.476562 199.75 285.3125 184.109375 C 284.152344 168.542969 225.941406 153.0625 225.941406 153.0625 C 225.941406 153.0625 223.78125 96.539062 204.625 92.390625 C 186.683594 88.507812 158.046875 138.308594 158.046875 138.308594 C 158.046875 138.308594 102.457031 120.464844 92.722656 133.199219 C 82.644531 146.375 118.410156 190.972656 118.410156 190.972656 " fill-opacity="1" fill-rule="nonzero"/><g clip-path="url(#1c8606b83b)"><path fill="#bb7953" d="M 216.886719 286.671875 C 199.21875 286.671875 171.578125 260.191406 162.792969 251.300781 C 154.035156 253.992188 130.136719 260.816406 112.972656 260.816406 C 112.96875 260.816406 112.972656 260.816406 112.972656 260.816406 C 103.511719 260.816406 97.144531 258.75 93.5 254.503906 C 87.09375 247.027344 88.824219 233.605469 98.800781 213.472656 C 103.421875 204.152344 108.65625 195.722656 111.570312 191.226562 C 108.3125 186.933594 102.398438 178.851562 97.015625 169.882812 C 85.210938 150.21875 82.441406 137.488281 88.300781 129.828125 C 91.78125 125.273438 98.25 123.058594 108.074219 123.058594 C 124.191406 123.058594 146.277344 129.011719 155.484375 131.71875 C 163.292969 118.832031 184.617188 86.617188 202.5625 86.617188 C 203.664062 86.617188 204.753906 86.734375 205.800781 86.960938 C 216.257812 89.226562 223.492188 101.078125 227.921875 123.191406 C 229.984375 133.492188 230.894531 143.429688 231.265625 148.785156 C 236.644531 150.34375 246.84375 153.46875 257.242188 157.582031 C 279.507812 166.394531 290.1875 174.691406 290.859375 183.699219 C 291.542969 192.90625 282.601562 201.800781 262.714844 211.6875 C 253.808594 216.117188 244.941406 219.597656 240.015625 221.429688 C 240.179688 226.78125 240.289062 236.582031 239.421875 246.898438 C 237.546875 269.160156 232.179688 281.800781 223.015625 285.53125 C 221.15625 286.289062 219.097656 286.671875 216.886719 286.671875 Z M 164.394531 239.414062 C 165.894531 239.414062 167.363281 240.023438 168.429688 241.148438 C 181.058594 254.453125 205.378906 275.5625 216.886719 275.5625 C 217.648438 275.5625 218.300781 275.453125 218.816406 275.242188 C 226.878906 271.960938 230.242188 242.933594 228.734375 217.921875 C 228.582031 215.429688 230.117188 213.140625 232.484375 212.332031 C 232.613281 212.289062 245.417969 207.886719 257.84375 201.699219 C 279.960938 190.6875 279.785156 184.769531 279.765625 184.523438 C 279.746094 184.265625 279.003906 178.144531 253.144531 167.914062 C 238.914062 162.28125 224.652344 158.46875 224.511719 158.433594 C 222.152344 157.804688 220.480469 155.714844 220.386719 153.277344 C 219.570312 132.214844 213.625 100.023438 203.445312 97.820312 C 203.171875 97.761719 202.875 97.730469 202.5625 97.730469 C 192.375 97.730469 173.21875 123.078125 162.871094 141.074219 C 161.566406 143.347656 158.847656 144.398438 156.347656 143.597656 C 156.054688 143.503906 126.738281 134.171875 108.074219 134.171875 C 99.414062 134.171875 97.449219 136.171875 97.140625 136.570312 C 95.652344 138.515625 95.960938 146.519531 106.558594 164.167969 C 113.960938 176.5 122.664062 187.390625 122.753906 187.5 C 124.285156 189.410156 124.382812 192.101562 122.996094 194.121094 C 108.667969 214.9375 96.792969 241.261719 101.953125 247.277344 C 102.441406 247.847656 104.679688 249.703125 112.972656 249.703125 C 132.101562 249.707031 162.347656 239.792969 162.648438 239.695312 C 163.21875 239.503906 163.808594 239.414062 164.394531 239.414062 Z M 164.394531 239.414062 " fill-opacity="1" fill-rule="nonzero"/></g><path fill="#fffaf2" d="M 210.253906 163.121094 C 210.207031 162.617188 209.921875 160.332031 209.792969 159.277344 C 209.484375 156.382812 209.527344 153.464844 209.183594 150.570312 C 208.378906 141.949219 208.1875 133.242188 206.046875 124.777344 C 205.554688 122.617188 204.957031 120.476562 204.308594 118.355469 C 203.96875 117.359375 203.851562 116.222656 203.042969 115.441406 C 200.113281 111.65625 193.546875 114.742188 194.917969 119.21875 C 196.636719 127.148438 196.964844 128.9375 197.359375 137.125 C 197.511719 143.863281 197.265625 150.613281 196.40625 157.3125 C 195.796875 160.371094 194.089844 163.640625 195.652344 166.597656 C 197.726562 172.03125 206.320312 172.410156 209.289062 167.453125 C 210.066406 166.152344 210.527344 164.609375 210.253906 163.121094 M 258.773438 179.078125 C 257.050781 176.304688 253.65625 175.578125 250.554688 174.855469 C 245.964844 173.761719 241.171875 173.1875 236.460938 173.863281 C 236.207031 173.894531 235.960938 173.929688 235.710938 173.960938 C 235.703125 173.960938 235.699219 173.960938 235.691406 173.960938 C 235.5 173.984375 235.308594 174.007812 235.117188 174.03125 C 235.199219 174.023438 235.277344 174.015625 235.355469 174.007812 C 235.003906 174.050781 234.648438 174.089844 234.292969 174.144531 C 234.339844 174.132812 234.414062 174.121094 234.507812 174.105469 C 232.640625 174.339844 230.777344 174.601562 228.949219 175.035156 C 226.679688 175.503906 224.230469 176.167969 223.058594 178.222656 C 220.246094 182.484375 224.84375 188.070312 229.992188 186.636719 C 234.90625 185.832031 238.492188 185.738281 247.070312 188.246094 C 249.964844 189.265625 253.269531 190.253906 256.109375 188.558594 C 259.574219 186.757812 260.832031 182.238281 258.773438 179.078125 " fill-opacity="1" fill-rule="nonzero"/></svg>