<svg xmlns="http://www.w3.org/2000/svg" xmlns:xlink="http://www.w3.org/1999/xlink" width="500" zoomAndPan="magnify" viewBox="0 0 375.12 383.03998" height="500" preserveAspectRatio="xMidYMid meet" version="1.0"><defs><clipPath id="e11f15ffb7"><path d="M 83 91.195312 L 289 91.195312 L 289 282.714844 L 83 282.714844 Z M 83 91.195312 " clip-rule="nonzero"/></clipPath></defs><path fill="#d6b8e0" d="M 186.148438 239.171875 C 176.023438 261.203125 137.210938 277.195312 112.589844 270.089844 C 84.785156 262.066406 90.761719 216.21875 123.140625 206.679688 C 104.164062 199.546875 81.214844 171.863281 92.089844 151.59375 C 108.765625 120.507812 143.601562 135.316406 160.339844 157.53125 C 152.921875 122.984375 169.410156 92.367188 198.769531 97.636719 C 222.605469 101.917969 228.144531 128.886719 223.683594 148.402344 C 232.078125 133.375 254.617188 129.402344 268.5625 139.511719 C 282.507812 149.617188 286.222656 170.746094 277.917969 185.828125 C 269.609375 200.90625 251.109375 209.078125 234.039062 206.757812 C 253.128906 207.765625 267.921875 228.695312 263.964844 247.378906 C 260.003906 266.0625 239.695312 279.089844 220.75 276.535156 C 201.804688 273.980469 186.15625 257.4375 186.148438 239.171875 " fill-opacity="1" fill-rule="nonzero"/><g clip-path="url(#e11f15ffb7)"><path fill="#bb7953" d="M 225.558594 282.625 C 223.683594 282.625 221.808594 282.5 219.976562 282.253906 C 203.304688 280.003906 189.003906 268.199219 183.167969 253.472656 C 169.996094 267.492188 147.078125 277.570312 125.632812 277.570312 C 120.363281 277.570312 115.433594 276.917969 110.988281 275.636719 C 97.527344 271.75 89.140625 259.863281 89.097656 244.613281 C 89.058594 231.371094 95.710938 215.34375 110.144531 206.246094 C 99.644531 199.027344 90.375 187.863281 86.140625 176.613281 C 82.359375 166.554688 82.65625 156.960938 86.996094 148.867188 C 96.214844 131.683594 109.574219 128.078125 119.160156 128.078125 C 130.292969 128.078125 142.433594 133.0625 152.792969 141.460938 C 152.757812 127.128906 156.703125 114.113281 164.199219 104.847656 C 171.386719 95.964844 181.101562 91.273438 192.300781 91.273438 C 194.738281 91.273438 197.257812 91.503906 199.792969 91.957031 C 209.597656 93.71875 217.660156 99.003906 223.113281 107.238281 C 228.328125 115.121094 230.496094 124.519531 230.8125 133.339844 C 236.511719 130.007812 243.304688 128.148438 250.5 128.148438 C 258.382812 128.148438 266 130.523438 271.957031 134.839844 C 287.972656 146.445312 292.914062 170.566406 282.976562 188.609375 C 277.378906 198.777344 267.609375 206.46875 256.171875 210.269531 C 258.664062 212.476562 260.933594 215.023438 262.902344 217.871094 C 269.332031 227.167969 271.777344 238.359375 269.613281 248.574219 C 265.566406 267.667969 246.214844 282.625 225.558594 282.625 Z M 186.144531 233.398438 C 186.554688 233.398438 186.96875 233.445312 187.378906 233.535156 C 190.03125 234.113281 191.925781 236.457031 191.925781 239.167969 C 191.933594 254.417969 205.210938 268.613281 221.523438 270.816406 C 222.84375 270.996094 224.199219 271.085938 225.558594 271.085938 C 240.964844 271.085938 255.351562 260.144531 258.3125 246.179688 C 259.820312 239.058594 258.027344 231.132812 253.394531 224.429688 C 249.023438 218.105469 242.726562 213.867188 236.097656 212.777344 C 235.148438 212.703125 234.195312 212.601562 233.261719 212.476562 C 230.191406 212.058594 227.996094 209.296875 228.289062 206.214844 C 228.578125 203.132812 231.25 200.820312 234.34375 200.992188 C 235.359375 201.046875 236.382812 201.148438 237.390625 201.296875 C 238.207031 201.351562 239.035156 201.378906 239.855469 201.378906 C 253.554688 201.378906 266.816406 194.007812 272.855469 183.046875 C 279.960938 170.148438 276.441406 152.351562 265.171875 144.183594 C 261.175781 141.285156 255.964844 139.691406 250.5 139.691406 C 241.1875 139.691406 232.640625 144.214844 228.726562 151.21875 C 227.328125 153.726562 224.296875 154.816406 221.613281 153.792969 C 218.929688 152.761719 217.414062 149.917969 218.050781 147.121094 C 220.796875 135.109375 219 121.953125 213.476562 113.605469 C 209.753906 107.984375 204.464844 104.523438 197.746094 103.316406 C 187.839844 101.539062 179.234375 104.625 173.1875 112.105469 C 165.050781 122.160156 162.292969 139.101562 165.988281 156.324219 C 166.558594 158.972656 165.207031 161.660156 162.738281 162.785156 C 160.277344 163.90625 157.355469 163.171875 155.722656 161.003906 C 146.085938 148.214844 131.394531 139.621094 119.160156 139.621094 C 109.808594 139.621094 102.414062 144.566406 97.183594 154.320312 C 94.417969 159.46875 94.34375 165.605469 96.957031 172.550781 C 101.484375 184.582031 113.613281 196.933594 125.175781 201.277344 C 127.5 202.152344 129.003906 204.410156 128.914062 206.890625 C 128.824219 209.367188 127.15625 211.511719 124.773438 212.214844 C 108.152344 217.113281 100.617188 232.425781 100.652344 244.582031 C 100.664062 249.414062 102.011719 261.03125 114.195312 264.546875 C 117.597656 265.53125 121.449219 266.027344 125.636719 266.027344 C 147.910156 266.027344 173.734375 252.351562 180.898438 236.765625 C 181.855469 234.683594 183.929688 233.398438 186.144531 233.398438 Z M 186.144531 233.398438 " fill-opacity="1" fill-rule="nonzero"/></g><path fill="#fffaf2" d="M 185.792969 177.128906 C 164.285156 177.984375 164.433594 208.847656 185.792969 209.613281 C 207.300781 208.757812 207.152344 177.894531 185.792969 177.128906 " fill-opacity="1" fill-rule="nonzero"/></svg>