<svg xmlns="http://www.w3.org/2000/svg" xmlns:xlink="http://www.w3.org/1999/xlink" width="1920" zoomAndPan="magnify" viewBox="0 0 1440 809.999993" height="1080" preserveAspectRatio="xMidYMid meet" version="1.0"><rect x="-144" width="1728" fill="#ffffff" y="-80.999999" height="971.999992" fill-opacity="1"/><rect x="-144" width="1728" fill="#ffffff" y="-80.999999" height="971.999992" fill-opacity="1"/><path fill="#fffcf5" d="M 234.761719 733.855469 L 144.078125 809.71875 L 0.128906 809.71875 L 0.128906 607.289062 L 96.550781 539.003906 L 0.128906 404.859375 L 0.128906 202.429688 L 144.074219 0 L 288.027344 0 C 411.507812 174.679688 431.96875 0.0625 431.976562 0 L 575.925781 0 C 670.105469 165.617188 719.859375 0.0625 719.875 0 L 863.828125 0 C 944.566406 186.007812 1007.753906 0.0625 1007.777344 0 L 1151.726562 0 C 1250.730469 138.425781 1295.65625 0.0625 1295.675781 0 L 1439.625 0 L 1439.625 202.429688 C 1319.023438 348.460938 1439.625 404.859375 1439.625 404.859375 L 1439.625 607.289062 L 1295.675781 809.71875 L 1151.726562 809.71875 C 1080.820312 742.839844 1070.824219 727.058594 1007.777344 809.71875 L 863.824219 809.71875 C 788.242188 738.308594 801.199219 695.339844 719.875 809.71875 L 575.925781 809.71875 C 525.117188 754.167969 513.449219 684.011719 431.976562 809.71875 L 288.027344 809.71875 C 250.660156 765.496094 234.761719 733.855469 234.761719 733.855469 Z M 234.761719 733.855469 " fill-opacity="1" fill-rule="nonzero"/><path fill="#ffbed0" d="M 575.925781 404.859375 L 431.976562 404.859375 L 431.976562 202.429688 L 575.925781 202.429688 Z M 288.027344 202.429688 L 144.078125 202.429688 L 144.078125 404.859375 L 288.027344 404.859375 Z M 288.027344 202.429688 L 144.078125 202.429688 L 144.078125 404.859375 L 288.027344 404.859375 Z M 1151.726562 202.429688 L 1007.777344 202.429688 L 1007.777344 404.859375 L 1151.726562 404.859375 Z M 1439.625 202.429688 L 1295.675781 202.429688 L 1295.675781 404.859375 L 1439.625 404.859375 Z M 1151.726562 202.429688 L 1007.777344 202.429688 L 1007.777344 404.859375 L 1151.726562 404.859375 Z M 863.824219 202.429688 L 719.875 202.429688 L 719.875 404.859375 L 863.824219 404.859375 Z M 863.824219 202.429688 L 719.875 202.429688 L 719.875 404.859375 L 863.824219 404.859375 Z M 1439.625 202.429688 L 1295.675781 202.429688 L 1295.675781 404.859375 L 1439.625 404.859375 Z M 575.925781 607.289062 L 431.976562 607.289062 L 431.976562 809.71875 L 575.925781 809.71875 Z M 288.027344 607.289062 L 144.078125 607.289062 L 144.078125 809.71875 L 288.027344 809.71875 Z M 288.027344 607.289062 L 144.078125 607.289062 L 144.078125 809.71875 L 288.027344 809.71875 Z M 575.925781 607.289062 L 431.976562 607.289062 L 431.976562 809.71875 L 575.925781 809.71875 Z M 1151.726562 607.289062 L 1007.777344 607.289062 L 1007.777344 809.71875 L 1151.726562 809.71875 Z M 1439.625 607.289062 L 1295.675781 607.289062 L 1295.675781 809.71875 L 1439.625 809.71875 Z M 1151.726562 607.289062 L 1007.777344 607.289062 L 1007.777344 809.71875 L 1151.726562 809.71875 Z M 863.824219 607.289062 L 719.875 607.289062 L 719.875 809.71875 L 863.824219 809.71875 Z M 863.824219 607.289062 L 719.875 607.289062 L 719.875 809.71875 L 863.824219 809.71875 Z M 1439.625 607.289062 L 1295.675781 607.289062 L 1295.675781 809.71875 L 1439.625 809.71875 Z M 1439.625 607.289062 " fill-opacity="1" fill-rule="nonzero"/><path fill="#ebc0d6" d="M 431.976562 202.429688 L 288.027344 202.429688 L 288.027344 0 L 431.976562 0 Z M 719.875 0 L 575.925781 0 L 575.925781 202.429688 L 719.875 202.429688 Z M 144.078125 0 L 0.128906 0 L 0.128906 202.429688 L 144.078125 202.429688 Z M 144.078125 0 L 0.128906 0 L 0.128906 202.429688 L 144.078125 202.429688 Z M 719.875 0 L 575.925781 0 L 575.925781 202.429688 L 719.875 202.429688 Z M 1295.675781 0 L 1151.726562 0 L 1151.726562 202.429688 L 1295.675781 202.429688 Z M 1007.777344 0 L 863.824219 0 L 863.824219 202.429688 L 1007.777344 202.429688 Z M 1007.777344 0 L 863.824219 0 L 863.824219 202.429688 L 1007.777344 202.429688 Z M 1295.675781 0 L 1151.726562 0 L 1151.726562 202.429688 L 1295.675781 202.429688 Z M 431.976562 404.859375 L 288.027344 404.859375 L 288.027344 607.289062 L 431.976562 607.289062 Z M 719.875 404.859375 L 575.925781 404.859375 L 575.925781 607.289062 L 719.875 607.289062 Z M 431.976562 404.859375 L 288.027344 404.859375 L 288.027344 607.289062 L 431.976562 607.289062 Z M 144.078125 404.859375 L 0.128906 404.859375 L 0.128906 607.289062 L 144.078125 607.289062 Z M 144.078125 404.859375 L 0.128906 404.859375 L 0.128906 607.289062 L 144.078125 607.289062 Z M 719.875 404.859375 L 575.925781 404.859375 L 575.925781 607.289062 L 719.875 607.289062 Z M 1295.675781 404.859375 L 1151.726562 404.859375 L 1151.726562 607.289062 L 1295.675781 607.289062 Z M 1007.777344 404.859375 L 863.824219 404.859375 L 863.824219 607.289062 L 1007.777344 607.289062 Z M 1007.777344 404.859375 L 863.824219 404.859375 L 863.824219 607.289062 L 1007.777344 607.289062 Z M 1295.675781 404.859375 L 1151.726562 404.859375 L 1151.726562 607.289062 L 1295.675781 607.289062 Z M 1295.675781 404.859375 " fill-opacity="1" fill-rule="nonzero"/><path fill="#9cb286" d="M 0.128906 99.773438 L 10.203125 99.773438 L 10.203125 102.652344 L 0.128906 102.652344 Z M 350.046875 102.652344 L 370.039062 102.652344 L 370.039062 99.773438 L 350.046875 99.773438 Z M 909.789062 102.652344 L 929.777344 102.652344 L 929.777344 99.773438 L 909.789062 99.773438 Z M 949.769531 102.652344 L 969.761719 102.652344 L 969.761719 99.773438 L 949.769531 99.773438 Z M 1229.640625 102.652344 L 1249.632812 102.652344 L 1249.632812 99.773438 L 1229.640625 99.773438 Z M 1309.605469 102.652344 L 1329.59375 102.652344 L 1329.59375 99.773438 L 1309.605469 99.773438 Z M 509.972656 102.652344 L 529.960938 102.652344 L 529.960938 99.773438 L 509.972656 99.773438 Z M 469.992188 102.652344 L 489.980469 102.652344 L 489.980469 99.773438 L 469.992188 99.773438 Z M 1269.625 102.652344 L 1289.613281 102.652344 L 1289.613281 99.773438 L 1269.625 99.773438 Z M 430.007812 102.652344 L 450 102.652344 L 450 99.773438 L 430.007812 99.773438 Z M 989.75 102.652344 L 1009.742188 102.652344 L 1009.742188 99.773438 L 989.75 99.773438 Z M 390.027344 102.652344 L 410.019531 102.652344 L 410.019531 99.773438 L 390.027344 99.773438 Z M 1109.695312 102.652344 L 1129.6875 102.652344 L 1129.6875 99.773438 L 1109.695312 99.773438 Z M 1069.714844 102.652344 L 1089.707031 102.652344 L 1089.707031 99.773438 L 1069.714844 99.773438 Z M 150.136719 102.652344 L 170.128906 102.652344 L 170.128906 99.773438 L 150.136719 99.773438 Z M 1149.679688 102.652344 L 1169.667969 102.652344 L 1169.667969 99.773438 L 1149.679688 99.773438 Z M 110.15625 102.652344 L 130.148438 102.652344 L 130.148438 99.773438 L 110.15625 99.773438 Z M 230.101562 102.652344 L 250.09375 102.652344 L 250.09375 99.773438 L 230.101562 99.773438 Z M 310.066406 102.652344 L 330.054688 102.652344 L 330.054688 99.773438 L 310.066406 99.773438 Z M 270.082031 102.652344 L 290.074219 102.652344 L 290.074219 99.773438 L 270.082031 99.773438 Z M 1029.734375 102.652344 L 1049.722656 102.652344 L 1049.722656 99.773438 L 1029.734375 99.773438 Z M 70.175781 102.652344 L 90.164062 102.652344 L 90.164062 99.773438 L 70.175781 99.773438 Z M 190.121094 102.652344 L 210.109375 102.652344 L 210.109375 99.773438 L 190.121094 99.773438 Z M 1349.585938 102.652344 L 1369.578125 102.652344 L 1369.578125 99.773438 L 1349.585938 99.773438 Z M 549.953125 102.652344 L 569.945312 102.652344 L 569.945312 99.773438 L 549.953125 99.773438 Z M 1389.566406 102.652344 L 1409.558594 102.652344 L 1409.558594 99.773438 L 1389.566406 99.773438 Z M 709.878906 102.652344 L 729.871094 102.652344 L 729.871094 99.773438 L 709.878906 99.773438 Z M 749.859375 102.652344 L 769.851562 102.652344 L 769.851562 99.773438 L 749.859375 99.773438 Z M 629.917969 102.652344 L 649.90625 102.652344 L 649.90625 99.773438 L 629.917969 99.773438 Z M 789.84375 102.652344 L 809.832031 102.652344 L 809.832031 99.773438 L 789.84375 99.773438 Z M 589.933594 102.652344 L 609.925781 102.652344 L 609.925781 99.773438 L 589.933594 99.773438 Z M 669.898438 102.652344 L 689.886719 102.652344 L 689.886719 99.773438 L 669.898438 99.773438 Z M 829.824219 102.652344 L 849.816406 102.652344 L 849.816406 99.773438 L 829.824219 99.773438 Z M 1189.660156 102.652344 L 1209.652344 102.652344 L 1209.652344 99.773438 L 1189.660156 99.773438 Z M 30.195312 102.652344 L 50.183594 102.652344 L 50.183594 99.773438 L 30.195312 99.773438 Z M 869.804688 102.652344 L 889.796875 102.652344 L 889.796875 99.773438 L 869.804688 99.773438 Z M 1429.546875 99.773438 L 1429.546875 102.652344 L 1439.625 102.652344 L 1439.625 99.773438 Z M 0.128906 305.082031 L 10.203125 305.082031 L 10.203125 302.203125 L 0.128906 302.203125 Z M 1189.660156 305.082031 L 1209.652344 305.082031 L 1209.652344 302.203125 L 1189.660156 302.203125 Z M 230.101562 305.082031 L 250.09375 305.082031 L 250.09375 302.203125 L 230.101562 302.203125 Z M 270.082031 305.082031 L 290.074219 305.082031 L 290.074219 302.203125 L 270.082031 302.203125 Z M 669.898438 305.082031 L 689.886719 305.082031 L 689.886719 302.203125 L 669.898438 302.203125 Z M 749.859375 305.082031 L 769.851562 305.082031 L 769.851562 302.203125 L 749.859375 302.203125 Z M 909.789062 305.082031 L 929.777344 305.082031 L 929.777344 302.203125 L 909.789062 302.203125 Z M 1069.714844 305.082031 L 1089.707031 305.082031 L 1089.707031 302.203125 L 1069.714844 302.203125 Z M 1149.679688 305.082031 L 1169.667969 305.082031 L 1169.667969 302.203125 L 1149.679688 302.203125 Z M 190.121094 305.082031 L 210.109375 305.082031 L 210.109375 302.203125 L 190.121094 302.203125 Z M 709.878906 305.082031 L 729.871094 305.082031 L 729.871094 302.203125 L 709.878906 302.203125 Z M 469.992188 305.082031 L 489.980469 305.082031 L 489.980469 302.203125 L 469.992188 302.203125 Z M 390.027344 305.082031 L 410.019531 305.082031 L 410.019531 302.203125 L 390.027344 302.203125 Z M 310.066406 305.082031 L 330.054688 305.082031 L 330.054688 302.203125 L 310.066406 302.203125 Z M 430.007812 305.082031 L 450 305.082031 L 450 302.203125 L 430.007812 302.203125 Z M 869.804688 305.082031 L 889.796875 305.082031 L 889.796875 302.203125 L 869.804688 302.203125 Z M 509.972656 305.082031 L 529.960938 305.082031 L 529.960938 302.203125 L 509.972656 302.203125 Z M 829.824219 305.082031 L 849.816406 305.082031 L 849.816406 302.203125 L 829.824219 302.203125 Z M 549.953125 305.082031 L 569.945312 305.082031 L 569.945312 302.203125 L 549.953125 302.203125 Z M 989.75 305.082031 L 1009.742188 305.082031 L 1009.742188 302.203125 L 989.75 302.203125 Z M 1029.734375 305.082031 L 1049.722656 305.082031 L 1049.722656 302.203125 L 1029.734375 302.203125 Z M 629.917969 305.082031 L 649.90625 305.082031 L 649.90625 302.203125 L 629.917969 302.203125 Z M 789.84375 305.082031 L 809.832031 305.082031 L 809.832031 302.203125 L 789.84375 302.203125 Z M 589.933594 305.082031 L 609.925781 305.082031 L 609.925781 302.203125 L 589.933594 302.203125 Z M 350.046875 305.082031 L 370.039062 305.082031 L 370.039062 302.203125 L 350.046875 302.203125 Z M 949.769531 305.082031 L 969.761719 305.082031 L 969.761719 302.203125 L 949.769531 302.203125 Z M 1109.695312 305.082031 L 1129.6875 305.082031 L 1129.6875 302.203125 L 1109.695312 302.203125 Z M 150.136719 305.082031 L 170.128906 305.082031 L 170.128906 302.203125 L 150.136719 302.203125 Z M 70.175781 305.082031 L 90.164062 305.082031 L 90.164062 302.203125 L 70.175781 302.203125 Z M 110.15625 305.082031 L 130.148438 305.082031 L 130.148438 302.203125 L 110.15625 302.203125 Z M 1269.625 305.082031 L 1289.613281 305.082031 L 1289.613281 302.203125 L 1269.625 302.203125 Z M 1389.566406 305.082031 L 1409.558594 305.082031 L 1409.558594 302.203125 L 1389.566406 302.203125 Z M 1309.605469 305.082031 L 1329.59375 305.082031 L 1329.59375 302.203125 L 1309.605469 302.203125 Z M 30.195312 305.082031 L 50.183594 305.082031 L 50.183594 302.203125 L 30.195312 302.203125 Z M 1229.640625 305.082031 L 1249.632812 305.082031 L 1249.632812 302.203125 L 1229.640625 302.203125 Z M 1349.585938 305.082031 L 1369.578125 305.082031 L 1369.578125 302.203125 L 1349.585938 302.203125 Z M 1429.546875 305.082031 L 1439.625 305.082031 L 1439.625 302.203125 L 1429.546875 302.203125 Z M 0.128906 507.515625 L 10.203125 507.515625 L 10.203125 504.636719 L 0.128906 504.636719 Z M 469.992188 507.515625 L 489.980469 507.515625 L 489.980469 504.636719 L 469.992188 504.636719 Z M 430.007812 507.515625 L 450 507.515625 L 450 504.636719 L 430.007812 504.636719 Z M 1309.605469 507.515625 L 1329.59375 507.515625 L 1329.59375 504.636719 L 1309.605469 504.636719 Z M 390.027344 507.515625 L 410.019531 507.515625 L 410.019531 504.636719 L 390.027344 504.636719 Z M 989.75 507.515625 L 1009.742188 507.515625 L 1009.742188 504.636719 L 989.75 504.636719 Z M 1229.640625 507.515625 L 1249.632812 507.515625 L 1249.632812 504.636719 L 1229.640625 504.636719 Z M 70.175781 507.515625 L 90.164062 507.515625 L 90.164062 504.636719 L 70.175781 504.636719 Z M 1269.625 507.515625 L 1289.613281 507.515625 L 1289.613281 504.636719 L 1269.625 504.636719 Z M 949.769531 507.515625 L 969.761719 507.515625 L 969.761719 504.636719 L 949.769531 504.636719 Z M 350.046875 507.515625 L 370.039062 507.515625 L 370.039062 504.636719 L 350.046875 504.636719 Z M 1349.585938 507.515625 L 1369.578125 507.515625 L 1369.578125 504.636719 L 1349.585938 504.636719 Z M 669.898438 507.515625 L 689.886719 507.515625 L 689.886719 504.636719 L 669.898438 504.636719 Z M 789.84375 507.515625 L 809.832031 507.515625 L 809.832031 504.636719 L 789.84375 504.636719 Z M 1389.566406 507.515625 L 1409.558594 507.515625 L 1409.558594 504.636719 L 1389.566406 504.636719 Z M 709.878906 507.515625 L 729.871094 507.515625 L 729.871094 504.636719 L 709.878906 504.636719 Z M 749.859375 507.515625 L 769.851562 507.515625 L 769.851562 504.636719 L 749.859375 504.636719 Z M 629.917969 507.515625 L 649.90625 507.515625 L 649.90625 504.636719 L 629.917969 504.636719 Z M 869.804688 507.515625 L 889.796875 507.515625 L 889.796875 504.636719 L 869.804688 504.636719 Z M 509.972656 507.515625 L 529.960938 507.515625 L 529.960938 504.636719 L 509.972656 504.636719 Z M 909.789062 507.515625 L 929.777344 507.515625 L 929.777344 504.636719 L 909.789062 504.636719 Z M 549.953125 507.515625 L 569.945312 507.515625 L 569.945312 504.636719 L 549.953125 504.636719 Z M 829.824219 507.515625 L 849.816406 507.515625 L 849.816406 504.636719 L 829.824219 504.636719 Z M 1029.734375 507.515625 L 1049.722656 507.515625 L 1049.722656 504.636719 L 1029.734375 504.636719 Z M 30.195312 507.515625 L 50.183594 507.515625 L 50.183594 504.636719 L 30.195312 504.636719 Z M 589.933594 507.515625 L 609.925781 507.515625 L 609.925781 504.636719 L 589.933594 504.636719 Z M 230.101562 507.515625 L 250.09375 507.515625 L 250.09375 504.636719 L 230.101562 504.636719 Z M 1069.714844 507.515625 L 1089.707031 507.515625 L 1089.707031 504.636719 L 1069.714844 504.636719 Z M 270.082031 507.515625 L 290.074219 507.515625 L 290.074219 504.636719 L 270.082031 504.636719 Z M 190.121094 507.515625 L 210.109375 507.515625 L 210.109375 504.636719 L 190.121094 504.636719 Z M 1109.695312 507.515625 L 1129.6875 507.515625 L 1129.6875 504.636719 L 1109.695312 504.636719 Z M 110.15625 507.515625 L 130.148438 507.515625 L 130.148438 504.636719 L 110.15625 504.636719 Z M 1149.679688 507.515625 L 1169.667969 507.515625 L 1169.667969 504.636719 L 1149.679688 504.636719 Z M 150.136719 507.515625 L 170.128906 507.515625 L 170.128906 504.636719 L 150.136719 504.636719 Z M 310.066406 507.515625 L 330.054688 507.515625 L 330.054688 504.636719 L 310.066406 504.636719 Z M 1189.660156 507.515625 L 1209.652344 507.515625 L 1209.652344 504.636719 L 1189.660156 504.636719 Z M 1429.546875 507.515625 L 1439.625 507.515625 L 1439.625 504.636719 L 1429.546875 504.636719 Z M 0.128906 709.945312 L 10.203125 709.945312 L 10.203125 707.066406 L 0.128906 707.066406 Z M 869.804688 709.945312 L 889.796875 709.945312 L 889.796875 707.066406 L 869.804688 707.066406 Z M 1149.679688 709.945312 L 1169.667969 709.945312 L 1169.667969 707.066406 L 1149.679688 707.066406 Z M 669.898438 709.945312 L 689.886719 709.945312 L 689.886719 707.066406 L 669.898438 707.066406 Z M 1389.566406 709.945312 L 1409.558594 709.945312 L 1409.558594 707.066406 L 1389.566406 707.066406 Z M 749.859375 709.945312 L 769.851562 709.945312 L 769.851562 707.066406 L 749.859375 707.066406 Z M 1069.714844 709.945312 L 1089.707031 709.945312 L 1089.707031 707.066406 L 1069.714844 707.066406 Z M 70.175781 709.945312 L 90.164062 709.945312 L 90.164062 707.066406 L 70.175781 707.066406 Z M 230.101562 709.945312 L 250.09375 709.945312 L 250.09375 707.066406 L 230.101562 707.066406 Z M 909.789062 709.945312 L 929.777344 709.945312 L 929.777344 707.066406 L 909.789062 707.066406 Z M 589.933594 709.945312 L 609.925781 709.945312 L 609.925781 707.066406 L 589.933594 707.066406 Z M 110.15625 709.945312 L 130.148438 709.945312 L 130.148438 707.066406 L 110.15625 707.066406 Z M 709.878906 709.945312 L 729.871094 709.945312 L 729.871094 707.066406 L 709.878906 707.066406 Z M 1229.640625 709.945312 L 1249.632812 709.945312 L 1249.632812 707.066406 L 1229.640625 707.066406 Z M 629.917969 709.945312 L 649.90625 709.945312 L 649.90625 707.066406 L 629.917969 707.066406 Z M 1109.695312 709.945312 L 1129.6875 709.945312 L 1129.6875 707.066406 L 1109.695312 707.066406 Z M 829.824219 709.945312 L 849.816406 709.945312 L 849.816406 707.066406 L 829.824219 707.066406 Z M 190.121094 709.945312 L 210.109375 709.945312 L 210.109375 707.066406 L 190.121094 707.066406 Z M 30.195312 709.945312 L 50.183594 709.945312 L 50.183594 707.066406 L 30.195312 707.066406 Z M 989.75 709.945312 L 1009.742188 709.945312 L 1009.742188 707.066406 L 989.75 707.066406 Z M 430.007812 709.945312 L 450 709.945312 L 450 707.066406 L 430.007812 707.066406 Z M 949.769531 709.945312 L 969.761719 709.945312 L 969.761719 707.066406 L 949.769531 707.066406 Z M 1029.734375 709.945312 L 1049.722656 709.945312 L 1049.722656 707.066406 L 1029.734375 707.066406 Z M 469.992188 709.945312 L 489.980469 709.945312 L 489.980469 707.066406 L 469.992188 707.066406 Z M 1309.605469 709.945312 L 1329.59375 709.945312 L 1329.59375 707.066406 L 1309.605469 707.066406 Z M 390.027344 709.945312 L 410.019531 709.945312 L 410.019531 707.066406 L 390.027344 707.066406 Z M 1189.660156 709.945312 L 1209.652344 709.945312 L 1209.652344 707.066406 L 1189.660156 707.066406 Z M 310.066406 709.945312 L 330.054688 709.945312 L 330.054688 707.066406 L 310.066406 707.066406 Z M 270.082031 709.945312 L 290.074219 709.945312 L 290.074219 707.066406 L 270.082031 707.066406 Z M 1349.585938 709.945312 L 1369.578125 709.945312 L 1369.578125 707.066406 L 1349.585938 707.066406 Z M 549.953125 709.945312 L 569.945312 709.945312 L 569.945312 707.066406 L 549.953125 707.066406 Z M 789.84375 709.945312 L 809.832031 709.945312 L 809.832031 707.066406 L 789.84375 707.066406 Z M 509.972656 709.945312 L 529.960938 709.945312 L 529.960938 707.066406 L 509.972656 707.066406 Z M 1269.625 709.945312 L 1289.613281 709.945312 L 1289.613281 707.066406 L 1269.625 707.066406 Z M 150.136719 709.945312 L 170.128906 709.945312 L 170.128906 707.066406 L 150.136719 707.066406 Z M 350.046875 709.945312 L 370.039062 709.945312 L 370.039062 707.066406 L 350.046875 707.066406 Z M 1429.546875 709.945312 L 1439.625 709.945312 L 1439.625 707.066406 L 1429.546875 707.066406 Z M 73.542969 0 L 70.664062 0 L 70.664062 10.078125 L 73.542969 10.078125 Z M 73.542969 30.320312 L 70.664062 30.320312 L 70.664062 50.566406 L 73.542969 50.566406 Z M 70.664062 374.492188 L 73.542969 374.492188 L 73.542969 354.246094 L 70.664062 354.246094 Z M 70.664062 698.417969 L 73.542969 698.417969 L 73.542969 678.171875 L 70.664062 678.171875 Z M 70.664062 617.433594 L 73.542969 617.433594 L 73.542969 597.191406 L 70.664062 597.191406 Z M 70.664062 172.039062 L 73.542969 172.039062 L 73.542969 151.792969 L 70.664062 151.792969 Z M 73.542969 516.210938 L 70.664062 516.210938 L 70.664062 536.453125 L 73.542969 536.453125 Z M 73.542969 111.304688 L 70.664062 111.304688 L 70.664062 131.546875 L 73.542969 131.546875 Z M 70.664062 455.472656 L 73.542969 455.472656 L 73.542969 435.226562 L 70.664062 435.226562 Z M 70.664062 414.984375 L 73.542969 414.984375 L 73.542969 394.738281 L 70.664062 394.738281 Z M 70.664062 495.964844 L 73.542969 495.964844 L 73.542969 475.71875 L 70.664062 475.71875 Z M 70.664062 738.90625 L 73.542969 738.90625 L 73.542969 718.664062 L 70.664062 718.664062 Z M 70.664062 576.945312 L 73.542969 576.945312 L 73.542969 556.699219 L 70.664062 556.699219 Z M 73.542969 70.8125 L 70.664062 70.8125 L 70.664062 91.058594 L 73.542969 91.058594 Z M 70.664062 253.019531 L 73.542969 253.019531 L 73.542969 232.777344 L 70.664062 232.777344 Z M 70.664062 293.511719 L 73.542969 293.511719 L 73.542969 273.265625 L 70.664062 273.265625 Z M 73.542969 313.757812 L 70.664062 313.757812 L 70.664062 334 L 73.542969 334 Z M 70.664062 212.53125 L 73.542969 212.53125 L 73.542969 192.285156 L 70.664062 192.285156 Z M 70.664062 779.398438 L 73.542969 779.398438 L 73.542969 759.152344 L 70.664062 759.152344 Z M 70.664062 657.925781 L 73.542969 657.925781 L 73.542969 637.679688 L 70.664062 637.679688 Z M 70.664062 809.71875 L 73.542969 809.71875 L 73.542969 799.640625 L 70.664062 799.640625 Z M 214.613281 10.078125 L 217.492188 10.078125 L 217.492188 0 L 214.613281 0 Z M 214.613281 253.019531 L 217.492188 253.019531 L 217.492188 232.777344 L 214.613281 232.777344 Z M 214.613281 293.511719 L 217.492188 293.511719 L 217.492188 273.265625 L 214.613281 273.265625 Z M 214.613281 334 L 217.492188 334 L 217.492188 313.757812 L 214.613281 313.757812 Z M 214.613281 414.984375 L 217.492188 414.984375 L 217.492188 394.738281 L 214.613281 394.738281 Z M 214.613281 495.964844 L 217.492188 495.964844 L 217.492188 475.71875 L 214.613281 475.71875 Z M 214.613281 455.472656 L 217.492188 455.472656 L 217.492188 435.226562 L 214.613281 435.226562 Z M 214.613281 374.492188 L 217.492188 374.492188 L 217.492188 354.246094 L 214.613281 354.246094 Z M 214.613281 131.546875 L 217.492188 131.546875 L 217.492188 111.304688 L 214.613281 111.304688 Z M 214.613281 91.058594 L 217.492188 91.058594 L 217.492188 70.8125 L 214.613281 70.8125 Z M 214.613281 50.566406 L 217.492188 50.566406 L 217.492188 30.324219 L 214.613281 30.324219 Z M 214.613281 172.039062 L 217.492188 172.039062 L 217.492188 151.792969 L 214.613281 151.792969 Z M 214.613281 536.453125 L 217.492188 536.453125 L 217.492188 516.210938 L 214.613281 516.210938 Z M 214.613281 212.53125 L 217.492188 212.53125 L 217.492188 192.285156 L 214.613281 192.285156 Z M 214.613281 698.417969 L 217.492188 698.417969 L 217.492188 678.171875 L 214.613281 678.171875 Z M 214.613281 779.398438 L 217.492188 779.398438 L 217.492188 759.152344 L 214.613281 759.152344 Z M 214.613281 576.945312 L 217.492188 576.945312 L 217.492188 556.699219 L 214.613281 556.699219 Z M 214.613281 738.90625 L 217.492188 738.90625 L 217.492188 718.664062 L 214.613281 718.664062 Z M 214.613281 657.925781 L 217.492188 657.925781 L 217.492188 637.679688 L 214.613281 637.679688 Z M 214.613281 617.433594 L 217.492188 617.433594 L 217.492188 597.191406 L 214.613281 597.191406 Z M 214.613281 809.71875 L 217.492188 809.71875 L 217.492188 799.640625 L 214.613281 799.640625 Z M 361.441406 0 L 358.5625 0 L 358.5625 10.078125 L 361.441406 10.078125 Z M 358.5625 698.417969 L 361.441406 698.417969 L 361.441406 678.171875 L 358.5625 678.171875 Z M 358.5625 414.984375 L 361.441406 414.984375 L 361.441406 394.738281 L 358.5625 394.738281 Z M 361.441406 313.757812 L 358.5625 313.757812 L 358.5625 334 L 361.441406 334 Z M 358.5625 455.472656 L 361.441406 455.472656 L 361.441406 435.226562 L 358.5625 435.226562 Z M 358.5625 374.492188 L 361.441406 374.492188 L 361.441406 354.246094 L 358.5625 354.246094 Z M 358.5625 657.925781 L 361.441406 657.925781 L 361.441406 637.679688 L 358.5625 637.679688 Z M 358.5625 253.019531 L 361.441406 253.019531 L 361.441406 232.777344 L 358.5625 232.777344 Z M 358.5625 212.53125 L 361.441406 212.53125 L 361.441406 192.285156 L 358.5625 192.285156 Z M 361.441406 111.304688 L 358.5625 111.304688 L 358.5625 131.546875 L 361.441406 131.546875 Z M 358.5625 172.039062 L 361.441406 172.039062 L 361.441406 151.792969 L 358.5625 151.792969 Z M 358.5625 495.964844 L 361.441406 495.964844 L 361.441406 475.71875 L 358.5625 475.71875 Z M 361.441406 516.210938 L 358.5625 516.210938 L 358.5625 536.453125 L 361.441406 536.453125 Z M 361.441406 70.8125 L 358.5625 70.8125 L 358.5625 91.058594 L 361.441406 91.058594 Z M 358.5625 293.511719 L 361.441406 293.511719 L 361.441406 273.265625 L 358.5625 273.265625 Z M 361.441406 30.320312 L 358.5625 30.320312 L 358.5625 50.566406 L 361.441406 50.566406 Z M 358.5625 738.90625 L 361.441406 738.90625 L 361.441406 718.664062 L 358.5625 718.664062 Z M 358.5625 779.398438 L 361.441406 779.398438 L 361.441406 759.152344 L 358.5625 759.152344 Z M 358.5625 617.433594 L 361.441406 617.433594 L 361.441406 597.191406 L 358.5625 597.191406 Z M 358.5625 576.945312 L 361.441406 576.945312 L 361.441406 556.699219 L 358.5625 556.699219 Z M 358.5625 809.71875 L 361.441406 809.71875 L 361.441406 799.640625 L 358.5625 799.640625 Z M 502.511719 10.078125 L 505.390625 10.078125 L 505.390625 0 L 502.511719 0 Z M 502.511719 576.945312 L 505.390625 576.945312 L 505.390625 556.699219 L 502.511719 556.699219 Z M 502.511719 617.433594 L 505.390625 617.433594 L 505.390625 597.191406 L 502.511719 597.191406 Z M 502.511719 455.472656 L 505.390625 455.472656 L 505.390625 435.226562 L 502.511719 435.226562 Z M 502.511719 495.964844 L 505.390625 495.964844 L 505.390625 475.71875 L 502.511719 475.71875 Z M 502.511719 536.453125 L 505.390625 536.453125 L 505.390625 516.210938 L 502.511719 516.210938 Z M 502.511719 738.90625 L 505.390625 738.90625 L 505.390625 718.664062 L 502.511719 718.664062 Z M 502.511719 779.398438 L 505.390625 779.398438 L 505.390625 759.152344 L 502.511719 759.152344 Z M 502.511719 698.417969 L 505.390625 698.417969 L 505.390625 678.171875 L 502.511719 678.171875 Z M 502.511719 657.925781 L 505.390625 657.925781 L 505.390625 637.679688 L 502.511719 637.679688 Z M 502.511719 131.546875 L 505.390625 131.546875 L 505.390625 111.304688 L 502.511719 111.304688 Z M 502.511719 172.039062 L 505.390625 172.039062 L 505.390625 151.792969 L 502.511719 151.792969 Z M 502.511719 212.53125 L 505.390625 212.53125 L 505.390625 192.285156 L 502.511719 192.285156 Z M 502.511719 91.058594 L 505.390625 91.058594 L 505.390625 70.8125 L 502.511719 70.8125 Z M 502.511719 50.566406 L 505.390625 50.566406 L 505.390625 30.324219 L 502.511719 30.324219 Z M 502.511719 293.511719 L 505.390625 293.511719 L 505.390625 273.265625 L 502.511719 273.265625 Z M 502.511719 374.492188 L 505.390625 374.492188 L 505.390625 354.246094 L 502.511719 354.246094 Z M 502.511719 334 L 505.390625 334 L 505.390625 313.757812 L 502.511719 313.757812 Z M 502.511719 253.019531 L 505.390625 253.019531 L 505.390625 232.777344 L 502.511719 232.777344 Z M 502.511719 414.984375 L 505.390625 414.984375 L 505.390625 394.738281 L 502.511719 394.738281 Z M 502.511719 809.71875 L 505.390625 809.71875 L 505.390625 799.640625 L 502.511719 799.640625 Z M 649.339844 0 L 646.460938 0 L 646.460938 10.078125 L 649.339844 10.078125 Z M 649.339844 70.8125 L 646.460938 70.8125 L 646.460938 91.058594 L 649.339844 91.058594 Z M 649.339844 30.320312 L 646.460938 30.320312 L 646.460938 50.566406 L 649.339844 50.566406 Z M 646.460938 374.492188 L 649.339844 374.492188 L 649.339844 354.246094 L 646.460938 354.246094 Z M 646.460938 657.925781 L 649.339844 657.925781 L 649.339844 637.679688 L 646.460938 637.679688 Z M 646.460938 698.417969 L 649.339844 698.417969 L 649.339844 678.171875 L 646.460938 678.171875 Z M 649.339844 313.757812 L 646.460938 313.757812 L 646.460938 334 L 649.339844 334 Z M 646.460938 617.433594 L 649.339844 617.433594 L 649.339844 597.191406 L 646.460938 597.191406 Z M 646.460938 738.90625 L 649.339844 738.90625 L 649.339844 718.664062 L 646.460938 718.664062 Z M 646.460938 414.984375 L 649.339844 414.984375 L 649.339844 394.738281 L 646.460938 394.738281 Z M 649.339844 516.210938 L 646.460938 516.210938 L 646.460938 536.453125 L 649.339844 536.453125 Z M 646.460938 779.398438 L 649.339844 779.398438 L 649.339844 759.152344 L 646.460938 759.152344 Z M 646.460938 253.019531 L 649.339844 253.019531 L 649.339844 232.777344 L 646.460938 232.777344 Z M 646.460938 212.53125 L 649.339844 212.53125 L 649.339844 192.285156 L 646.460938 192.285156 Z M 646.460938 293.511719 L 649.339844 293.511719 L 649.339844 273.265625 L 646.460938 273.265625 Z M 646.460938 495.964844 L 649.339844 495.964844 L 649.339844 475.71875 L 646.460938 475.71875 Z M 646.460938 455.472656 L 649.339844 455.472656 L 649.339844 435.226562 L 646.460938 435.226562 Z M 646.460938 172.039062 L 649.339844 172.039062 L 649.339844 151.792969 L 646.460938 151.792969 Z M 649.339844 111.304688 L 646.460938 111.304688 L 646.460938 131.546875 L 649.339844 131.546875 Z M 646.460938 576.945312 L 649.339844 576.945312 L 649.339844 556.699219 L 646.460938 556.699219 Z M 646.460938 809.71875 L 649.339844 809.71875 L 649.339844 799.640625 L 646.460938 799.640625 Z M 793.289062 0 L 790.410156 0 L 790.410156 10.078125 L 793.289062 10.078125 Z M 790.410156 779.398438 L 793.289062 779.398438 L 793.289062 759.152344 L 790.410156 759.152344 Z M 790.410156 738.90625 L 793.289062 738.90625 L 793.289062 718.664062 L 790.410156 718.664062 Z M 790.410156 576.945312 L 793.289062 576.945312 L 793.289062 556.699219 L 790.410156 556.699219 Z M 793.289062 516.210938 L 790.410156 516.210938 L 790.410156 536.453125 L 793.289062 536.453125 Z M 790.410156 455.472656 L 793.289062 455.472656 L 793.289062 435.226562 L 790.410156 435.226562 Z M 793.289062 313.757812 L 790.410156 313.757812 L 790.410156 334 L 793.289062 334 Z M 790.410156 414.984375 L 793.289062 414.984375 L 793.289062 394.738281 L 790.410156 394.738281 Z M 793.289062 30.320312 L 790.410156 30.320312 L 790.410156 50.566406 L 793.289062 50.566406 Z M 793.289062 70.8125 L 790.410156 70.8125 L 790.410156 91.058594 L 793.289062 91.058594 Z M 790.410156 374.492188 L 793.289062 374.492188 L 793.289062 354.246094 L 790.410156 354.246094 Z M 790.410156 293.511719 L 793.289062 293.511719 L 793.289062 273.265625 L 790.410156 273.265625 Z M 790.410156 657.925781 L 793.289062 657.925781 L 793.289062 637.679688 L 790.410156 637.679688 Z M 790.410156 698.417969 L 793.289062 698.417969 L 793.289062 678.171875 L 790.410156 678.171875 Z M 790.410156 495.964844 L 793.289062 495.964844 L 793.289062 475.71875 L 790.410156 475.71875 Z M 790.410156 253.019531 L 793.289062 253.019531 L 793.289062 232.777344 L 790.410156 232.777344 Z M 790.410156 617.433594 L 793.289062 617.433594 L 793.289062 597.191406 L 790.410156 597.191406 Z M 790.410156 212.53125 L 793.289062 212.53125 L 793.289062 192.285156 L 790.410156 192.285156 Z M 790.410156 172.039062 L 793.289062 172.039062 L 793.289062 151.792969 L 790.410156 151.792969 Z M 793.289062 111.304688 L 790.410156 111.304688 L 790.410156 131.546875 L 793.289062 131.546875 Z M 790.410156 809.71875 L 793.289062 809.71875 L 793.289062 799.640625 L 790.410156 799.640625 Z M 934.363281 10.078125 L 937.242188 10.078125 L 937.242188 0 L 934.363281 0 Z M 934.363281 131.546875 L 937.242188 131.546875 L 937.242188 111.304688 L 934.363281 111.304688 Z M 934.363281 91.058594 L 937.242188 91.058594 L 937.242188 70.8125 L 934.363281 70.8125 Z M 934.363281 455.472656 L 937.242188 455.472656 L 937.242188 435.226562 L 934.363281 435.226562 Z M 934.363281 414.984375 L 937.242188 414.984375 L 937.242188 394.738281 L 934.363281 394.738281 Z M 934.363281 293.511719 L 937.242188 293.511719 L 937.242188 273.265625 L 934.363281 273.265625 Z M 934.363281 253.019531 L 937.242188 253.019531 L 937.242188 232.777344 L 934.363281 232.777344 Z M 934.363281 334 L 937.242188 334 L 937.242188 313.757812 L 934.363281 313.757812 Z M 934.363281 212.53125 L 937.242188 212.53125 L 937.242188 192.285156 L 934.363281 192.285156 Z M 934.363281 172.039062 L 937.242188 172.039062 L 937.242188 151.792969 L 934.363281 151.792969 Z M 934.363281 374.492188 L 937.242188 374.492188 L 937.242188 354.246094 L 934.363281 354.246094 Z M 934.363281 698.417969 L 937.242188 698.417969 L 937.242188 678.171875 L 934.363281 678.171875 Z M 934.363281 779.398438 L 937.242188 779.398438 L 937.242188 759.152344 L 934.363281 759.152344 Z M 934.363281 617.433594 L 937.242188 617.433594 L 937.242188 597.191406 L 934.363281 597.191406 Z M 934.363281 657.925781 L 937.242188 657.925781 L 937.242188 637.679688 L 934.363281 637.679688 Z M 934.363281 495.964844 L 937.242188 495.964844 L 937.242188 475.71875 L 934.363281 475.71875 Z M 934.363281 738.90625 L 937.242188 738.90625 L 937.242188 718.664062 L 934.363281 718.664062 Z M 934.363281 576.945312 L 937.242188 576.945312 L 937.242188 556.699219 L 934.363281 556.699219 Z M 934.363281 536.453125 L 937.242188 536.453125 L 937.242188 516.210938 L 934.363281 516.210938 Z M 934.363281 50.566406 L 937.242188 50.566406 L 937.242188 30.324219 L 934.363281 30.324219 Z M 934.363281 809.71875 L 937.242188 809.71875 L 937.242188 799.640625 L 934.363281 799.640625 Z M 1081.191406 0 L 1078.3125 0 L 1078.3125 10.078125 L 1081.191406 10.078125 Z M 1078.3125 617.433594 L 1081.191406 617.433594 L 1081.191406 597.191406 L 1078.3125 597.191406 Z M 1078.3125 657.925781 L 1081.191406 657.925781 L 1081.191406 637.679688 L 1078.3125 637.679688 Z M 1078.3125 698.417969 L 1081.191406 698.417969 L 1081.191406 678.171875 L 1078.3125 678.171875 Z M 1081.191406 70.8125 L 1078.3125 70.8125 L 1078.3125 91.058594 L 1081.191406 91.058594 Z M 1081.191406 516.210938 L 1078.3125 516.210938 L 1078.3125 536.453125 L 1081.191406 536.453125 Z M 1078.3125 779.398438 L 1081.191406 779.398438 L 1081.191406 759.152344 L 1078.3125 759.152344 Z M 1078.3125 738.90625 L 1081.191406 738.90625 L 1081.191406 718.664062 L 1078.3125 718.664062 Z M 1078.3125 576.945312 L 1081.191406 576.945312 L 1081.191406 556.699219 L 1078.3125 556.699219 Z M 1081.191406 111.304688 L 1078.3125 111.304688 L 1078.3125 131.546875 L 1081.191406 131.546875 Z M 1078.3125 414.984375 L 1081.191406 414.984375 L 1081.191406 394.738281 L 1078.3125 394.738281 Z M 1078.3125 374.492188 L 1081.191406 374.492188 L 1081.191406 354.246094 L 1078.3125 354.246094 Z M 1081.191406 313.757812 L 1078.3125 313.757812 L 1078.3125 334 L 1081.191406 334 Z M 1078.3125 495.964844 L 1081.191406 495.964844 L 1081.191406 475.71875 L 1078.3125 475.71875 Z M 1081.191406 30.320312 L 1078.3125 30.320312 L 1078.3125 50.566406 L 1081.191406 50.566406 Z M 1078.3125 455.472656 L 1081.191406 455.472656 L 1081.191406 435.226562 L 1078.3125 435.226562 Z M 1078.3125 253.019531 L 1081.191406 253.019531 L 1081.191406 232.777344 L 1078.3125 232.777344 Z M 1078.3125 172.039062 L 1081.191406 172.039062 L 1081.191406 151.792969 L 1078.3125 151.792969 Z M 1078.3125 212.53125 L 1081.191406 212.53125 L 1081.191406 192.285156 L 1078.3125 192.285156 Z M 1078.3125 293.511719 L 1081.191406 293.511719 L 1081.191406 273.265625 L 1078.3125 273.265625 Z M 1078.3125 809.71875 L 1081.191406 809.71875 L 1081.191406 799.640625 L 1078.3125 799.640625 Z M 1222.261719 10.078125 L 1225.140625 10.078125 L 1225.140625 0 L 1222.261719 0 Z M 1222.261719 91.058594 L 1225.140625 91.058594 L 1225.140625 70.8125 L 1222.261719 70.8125 Z M 1222.261719 131.546875 L 1225.140625 131.546875 L 1225.140625 111.304688 L 1222.261719 111.304688 Z M 1222.261719 50.566406 L 1225.140625 50.566406 L 1225.140625 30.324219 L 1222.261719 30.324219 Z M 1222.261719 495.964844 L 1225.140625 495.964844 L 1225.140625 475.71875 L 1222.261719 475.71875 Z M 1222.261719 576.945312 L 1225.140625 576.945312 L 1225.140625 556.699219 L 1222.261719 556.699219 Z M 1222.261719 617.433594 L 1225.140625 617.433594 L 1225.140625 597.191406 L 1222.261719 597.191406 Z M 1222.261719 657.925781 L 1225.140625 657.925781 L 1225.140625 637.679688 L 1222.261719 637.679688 Z M 1222.261719 334 L 1225.140625 334 L 1225.140625 313.757812 L 1222.261719 313.757812 Z M 1222.261719 455.472656 L 1225.140625 455.472656 L 1225.140625 435.226562 L 1222.261719 435.226562 Z M 1222.261719 374.492188 L 1225.140625 374.492188 L 1225.140625 354.246094 L 1222.261719 354.246094 Z M 1222.261719 698.417969 L 1225.140625 698.417969 L 1225.140625 678.171875 L 1222.261719 678.171875 Z M 1222.261719 172.039062 L 1225.140625 172.039062 L 1225.140625 151.792969 L 1222.261719 151.792969 Z M 1222.261719 414.984375 L 1225.140625 414.984375 L 1225.140625 394.738281 L 1222.261719 394.738281 Z M 1222.261719 536.453125 L 1225.140625 536.453125 L 1225.140625 516.210938 L 1222.261719 516.210938 Z M 1222.261719 212.53125 L 1225.140625 212.53125 L 1225.140625 192.285156 L 1222.261719 192.285156 Z M 1222.261719 253.019531 L 1225.140625 253.019531 L 1225.140625 232.777344 L 1222.261719 232.777344 Z M 1222.261719 293.511719 L 1225.140625 293.511719 L 1225.140625 273.265625 L 1222.261719 273.265625 Z M 1222.261719 738.90625 L 1225.140625 738.90625 L 1225.140625 718.664062 L 1222.261719 718.664062 Z M 1222.261719 779.398438 L 1225.140625 779.398438 L 1225.140625 759.152344 L 1222.261719 759.152344 Z M 1222.261719 809.71875 L 1225.140625 809.71875 L 1225.140625 799.640625 L 1222.261719 799.640625 Z M 1369.089844 0 L 1366.210938 0 L 1366.210938 10.078125 L 1369.089844 10.078125 Z M 1366.210938 293.511719 L 1369.089844 293.511719 L 1369.089844 273.265625 L 1366.210938 273.265625 Z M 1369.089844 70.8125 L 1366.210938 70.8125 L 1366.210938 91.058594 L 1369.089844 91.058594 Z M 1369.089844 30.320312 L 1366.210938 30.320312 L 1366.210938 50.566406 L 1369.089844 50.566406 Z M 1369.089844 111.304688 L 1366.210938 111.304688 L 1366.210938 131.546875 L 1369.089844 131.546875 Z M 1366.210938 253.019531 L 1369.089844 253.019531 L 1369.089844 232.777344 L 1366.210938 232.777344 Z M 1366.210938 698.417969 L 1369.089844 698.417969 L 1369.089844 678.171875 L 1366.210938 678.171875 Z M 1366.210938 657.925781 L 1369.089844 657.925781 L 1369.089844 637.679688 L 1366.210938 637.679688 Z M 1366.210938 617.433594 L 1369.089844 617.433594 L 1369.089844 597.191406 L 1366.210938 597.191406 Z M 1366.210938 779.398438 L 1369.089844 779.398438 L 1369.089844 759.152344 L 1366.210938 759.152344 Z M 1366.210938 738.90625 L 1369.089844 738.90625 L 1369.089844 718.664062 L 1366.210938 718.664062 Z M 1366.210938 576.945312 L 1369.089844 576.945312 L 1369.089844 556.699219 L 1366.210938 556.699219 Z M 1369.089844 516.210938 L 1366.210938 516.210938 L 1366.210938 536.453125 L 1369.089844 536.453125 Z M 1366.210938 374.492188 L 1369.089844 374.492188 L 1369.089844 354.246094 L 1366.210938 354.246094 Z M 1366.210938 495.964844 L 1369.089844 495.964844 L 1369.089844 475.71875 L 1366.210938 475.71875 Z M 1366.210938 212.53125 L 1369.089844 212.53125 L 1369.089844 192.285156 L 1366.210938 192.285156 Z M 1366.210938 172.039062 L 1369.089844 172.039062 L 1369.089844 151.792969 L 1366.210938 151.792969 Z M 1369.089844 313.757812 L 1366.210938 313.757812 L 1366.210938 334 L 1369.089844 334 Z M 1366.210938 455.472656 L 1369.089844 455.472656 L 1369.089844 435.226562 L 1366.210938 435.226562 Z M 1366.210938 414.984375 L 1369.089844 414.984375 L 1369.089844 394.738281 L 1366.210938 394.738281 Z M 1366.210938 809.71875 L 1369.089844 809.71875 L 1369.089844 799.640625 L 1366.210938 799.640625 Z M 1366.210938 809.71875 " fill-opacity="1" fill-rule="nonzero"/></svg>